Coordinates
version=1
nRows=16
nColumns=36
inDegrees=yes

Units are S.I. units (second, meters, Newtons, ...)
If the header above contains a line with 'inDegrees', this indicates whether rotational values are in degrees (yes) or radians (no).

endheader
time	pelvis_tilt	pelvis_list	pelvis_rotation	pelvis_tx	pelvis_ty	pelvis_tz	hip_flexion_r	hip_adduction_r	hip_rotation_r	knee_angle_r	knee_angle_r_beta	ankle_angle_r	subtalar_angle_r	mtp_angle_r	hip_flexion_l	hip_adduction_l	hip_rotation_l	knee_angle_l	knee_angle_l_beta	ankle_angle_l	subtalar_angle_l	mtp_angle_l	lumbar_extension	lumbar_bending	lumbar_rotation	arm_flex_r	arm_add_r	arm_rot_r	elbow_flex_r	pro_sup_r	arm_flex_l	arm_add_l	arm_rot_l	elbow_flex_l	pro_sup_l
      4.01666670	     -0.72271396	     -0.29002480	     19.70942107	      0.77210743	      0.97003440	     -0.07246376	     37.84881672	     -6.15687690	     -5.51721728	     24.79323354	      0.43272356	     -1.59305605	      0.89419231	     -7.49999987	     19.81719120	      7.55232392	     -1.79468126	     42.81066728	      0.74718710	     33.22219262	     -2.69663639	     -7.49999987	    -12.01766299	     -3.39444678	      6.62109022	     60.99643482	      3.86513674	     54.91557069	    118.03997376	     98.63181270	     50.52605775	      4.72832138	     61.00610676	    117.02383565	    104.84804794
      4.03333330	     -1.12056575	     -0.87667812	     18.99494886	      0.77352912	      0.98119614	     -0.07289774	     36.89794371	     -5.52559424	     -6.57069309	     24.93061237	      0.43512127	     -0.46339396	      1.36690709	     -7.49999987	     18.49504794	      6.59218669	     -2.20089388	     39.72130793	      0.69326761	     31.52348620	     -2.31582713	     -7.49999987	    -10.98331844	     -3.05935067	      7.07242929	     60.93248049	      4.08449110	     55.11922172	    118.21214272	     98.49489400	     50.38051037	      5.12439633	     61.08239488	    116.98424261	    105.03795294
      4.05000000	     -1.36356222	     -1.28539224	     18.32158196	      0.76956842	      0.98319157	     -0.07018034	     35.95908164	     -5.10808839	     -7.58045815	     25.43692199	      0.44395804	      0.91070235	      2.27366353	     -7.49999987	     17.26967556	      5.79218301	     -2.81911058	     36.77944554	      0.64192242	     29.99444066	     -1.95410419	     -7.49999987	    -10.18366750	     -2.67330053	      7.52326357	     61.34176711	      4.14410298	     55.04545117	    118.39775730	     98.06745221	     50.88557282	      5.44157556	     60.88411939	    116.81711261	    104.95639937
      4.06666670	     -1.58279983	     -1.88739372	     17.66337388	      0.77495521	      0.99096834	     -0.06765178	     34.72257419	     -4.41193112	     -8.46827795	     25.72587967	      0.44900130	      2.04469844	      2.80882614	     -7.49999987	     16.23618087	      4.73492644	     -3.56105732	     33.69851306	      0.58815001	     28.36785649	     -1.43402033	     -7.49999987	     -9.11017996	     -2.08288334	      8.16860220	     61.72054751	      3.70125432	     55.36089345	    118.37030842	     97.67982305	     50.87672848	      5.60851694	     61.29685105	    116.69659185	    104.75171270
      4.08333330	     -1.32196305	     -2.13528474	     16.97673222	      0.77484456	      0.99725773	     -0.06709395	     33.34063703	     -4.12366856	     -9.30899066	     26.32436178	      0.45944679	      3.45443336	      4.14981422	     -7.49999987	     14.95273979	      3.99183707	     -4.34030729	     30.89154357	      0.53915915	     27.19185003	     -0.64464125	     -7.49999987	     -9.01322602	     -1.75392019	      8.82333379	     62.09614826	      3.22380154	     55.48616643	    118.42749753	     97.16713413	     51.27620889	      5.98058642	     61.93416529	    117.26976699	    104.72544656
      4.10000000	     -1.05300426	     -2.40361306	     16.30056026	      0.76986073	      0.99996829	     -0.06561678	     32.24086553	     -3.91325304	     -9.80394923	     27.14850816	      0.47383085	      5.01961416	      5.02983306	     -7.49999987	     14.15915628	      3.29319359	     -4.96697128	     28.80727113	      0.50278173	     26.40480198	     -0.01314167	     -7.49999987	     -9.09756540	     -1.41170407	      9.01212086	     62.30540900	      3.20223673	     55.10169800	    118.33858324	     96.55844942	     51.62190335	      6.52764184	     61.97233093	    118.47948902	    104.67976568
      4.11666670	     -0.77982530	     -2.72779993	     15.56097116	      0.77460451	      1.00174667	     -0.06706773	     30.89310628	     -3.62775336	    -10.08070754	     27.88216876	      0.48663565	      6.53429059	      5.39056629	     -7.49999987	     13.28705133	      2.50473112	     -5.61091146	     26.69626451	      0.46593771	     25.54088730	      0.49297861	     -7.49999987	     -8.61534696	     -0.89209326	      9.36615126	     62.53619246	      3.42068520	     54.79834217	    117.93882223	     96.14989489	     51.64102812	      7.03207872	     61.94110668	    119.20222227	    104.65988085
      4.13333330	     -0.21817387	     -2.84081389	     14.95476093	      0.77384002	      1.00549962	     -0.06250567	     29.54643872	     -3.81598494	    -10.50713013	     28.70492438	      0.50099544	      7.96708678	      5.94205402	     -7.49999987	     12.23249445	      1.93587842	     -6.20436896	     24.89213055	      0.43444964	     24.80737358	      1.33161644	     -7.49999987	     -8.79521932	     -0.58019106	      9.40020261	     63.41288051	      4.13097706	     54.58275840	    117.42364040	     95.32460770	     52.24586733	      7.33532364	     61.78370618	    119.89045757	    104.68262809
      4.15000000	      0.40415686	     -2.87997671	     14.27171642	      0.77314026	      1.01151033	     -0.06153687	     27.99985871	     -4.08118908	    -10.77846157	     29.27126338	      0.51087992	      9.15676434	      6.04243781	     -7.49999987	     11.01743331	      1.42302584	     -6.88846264	     23.00652828	      0.40153967	     23.86099785	      1.98875874	     -7.49999987	     -9.07655261	     -0.40916524	      9.56685570	     64.09202231	      4.71865184	     54.60735205	    116.83706053	     94.48780177	     52.56467935	      7.22267943	     61.70077485	    120.14740159	    104.66443967
      4.16666670	      0.82851879	     -2.86596428	     13.74497151	      0.77212747	      1.00765508	     -0.06162913	     26.81561518	     -4.58406756	    -10.87667771	     29.97703203	      0.52319791	     10.21218606	      5.73376974	     -7.49999987	     10.13251831	      1.09288936	     -7.43241092	     21.41259205	      0.37372023	     22.84839665	      2.49369079	     -7.49999987	     -9.03919033	     -0.44817392	      9.62095921	     64.55432980	      4.90207144	     54.56269656	    116.64133002	     94.40273803	     52.81537881	      7.03414408	     61.55670265	    120.18594942	    104.97745688
      4.18333330	      1.57884042	     -2.80766659	     13.43509759	      0.77154675	      1.00450692	     -0.06091335	     25.28459040	     -5.16363527	    -11.05939213	     30.42952530	      0.53109541	     11.18613768	      5.38221989	     -7.49999987	      8.98898844	      0.80378934	     -7.76452230	     20.04959630	      0.34993147	     22.13001966	      2.98400060	     -7.49999987	     -9.47307059	     -0.30879010	      9.34362725	     65.49779502	      5.32288506	     54.76095800	    115.80769948	     91.98204883	     53.50707349	      6.58199070	     61.02542850	    120.29259048	    105.37961834
      4.20000000	      2.01231605	     -2.74261869	     13.14322083	      0.77425848	      0.99802397	     -0.05734835	     24.32193132	     -6.03172972	    -11.31662917	     31.06814999	      0.54224151	     12.29836985	      4.95907336	     -7.49999987	      8.06514454	      0.63747883	     -8.07446643	     18.71581546	      0.32665260	     21.71535450	      3.46578043	     -7.49999987	     -9.46412284	     -0.53099825	      9.28092057	     66.15236617	      5.44099095	     54.34088163	    115.71018338	     92.06418769	     54.41585297	      6.35670523	     60.43575097	    120.09457411	    105.78362436
      4.21666670	      2.54828513	     -2.70720535	     12.77699150	      0.77811856	      0.99562404	     -0.05336314	     23.20529019	     -6.83092198	    -11.50402678	     31.82214556	      0.55540122	     13.56285762	      4.33645442	     -7.49999987	      6.90546522	      0.41578598	     -8.31934385	     17.53572869	      0.30605620	     21.46511309	      3.85604688	     -7.49999987	     -9.76544843	     -0.80243264	      9.20578356	     66.76607484	      5.97761807	     53.81445206	    115.55464476	     91.77903855	     55.36036089	      5.95069918	     59.71866547	    120.15686375	    105.63120121
      4.23333330	      3.37733492	     -2.77468162	     12.39389879	      0.78626496	      0.99666601	     -0.05314675	     21.52093381	     -7.50353127	    -11.78643399	     32.18337833	      0.56170592	     14.49078151	      3.72119602	     -7.49999987	      4.98725741	      0.01970432	     -8.70826492	     16.05770741	      0.28025986	     21.38406681	      4.65969152	     -7.49999987	    -10.37037590	     -0.73521288	      8.79415637	     67.11409631	      6.87666365	     53.66716776	    115.26911085	     91.08278007	     55.57280508	      5.14776525	     58.93181620	    120.58974373	    105.21149481
      4.25000000	      3.74443589	     -2.80313220	     11.91617688	      0.79024220	      0.99912597	     -0.04921226	     20.33402073	     -8.24452343	    -12.01421762	     32.22012940	      0.56234734	     15.16354047	      3.05295010	     -7.49999987	      3.67209738	     -0.21018800	     -9.08629577	     14.93623847	      0.26068654	     21.13797078	      5.00522774	     -7.49999987	    -10.35337964	     -1.06009479	      8.62134795	     66.60109163	      7.36529279	     53.60727815	    115.58558779	     91.36388557	     55.34617508	      4.18379409	     58.54660395	    120.91775238	    105.75527224
      4.26666670	      4.47524789	     -2.79341823	     11.62081302	      0.78879818	      0.99863865	     -0.04445072	     18.54746953	     -8.79334308	    -12.10821283	     31.85721210	      0.55601324	     15.19950204	      1.98297744	     -7.49999987	      1.84400122	     -0.52094046	     -9.77551725	     13.72943630	      0.23962387	     21.18088668	      5.91870803	     -7.49999987	    -10.86532273	     -1.09507586	      7.78446801	     66.34817960	      8.59427533	     53.63460027	    114.48111555	     90.89950872	     54.95166124	      2.81566406	     57.20625209	    121.45578478	    105.37059699
